<svg xmlns="http://www.w3.org/2000/svg" xmlns:svg="http://www.w3.org/2000/svg" xmlns:xlink="http://www.w3.org/1999/xlink" id="svg2" width="744.094" height="1052.362" version="1.1"><metadata id="metadata7"/><g id="layer4"><path id="path4041" d="m 527.29964,391.72241 a 228.29448,228.29448 0 1 1 -456.588962,0 228.29448,228.29448 0 1 1 456.588962,0 z" transform="translate(64.81078,-7.9316595)" style="display:inline;color:#000;fill:#ffe;fill-opacity:1;stroke:#444;stroke-width:32;stroke-linecap:butt;stroke-linejoin:round;stroke-miterlimit:4;stroke-opacity:1;stroke-dasharray:none;stroke-dashoffset:0;marker:none;visibility:visible;overflow:visible;enable-background:accumulate"/></g><g id="layer2" style="display:none"><path style="color:#000;fill:#fff;fill-opacity:1;stroke:#000;stroke-width:32;stroke-linecap:butt;stroke-linejoin:round;stroke-miterlimit:4;stroke-opacity:1;stroke-dasharray:none;stroke-dashoffset:0;marker:none;visibility:visible;display:inline;overflow:visible;enable-background:accumulate" id="path2985" d="m 527.29964,391.72241 a 228.29448,228.29448 0 1 1 -456.588962,0 228.29448,228.29448 0 1 1 456.588962,0 z" transform="translate(64.81078,-7.9316595)"/></g><g id="layer1"><rect style="color:#000;fill:#868686;fill-opacity:1;fill-rule:evenodd;stroke:none;stroke-width:1;marker:none;visibility:visible;display:inline;overflow:visible;enable-background:accumulate" id="rect2987" width="42.224" height="42.224" x="175.133" y="362.679" ry="21.112"/><use id="use4030" width="744.094" height="1052.362" x="0" y="0" transform="matrix(0,1,-1,0,747.60668,21.856828)" xlink:href="#rect2987"/><use id="use4032" width="744.094" height="1052.362" x="0" y="0" transform="matrix(0,1,-1,0,756.38904,19.974826)" xlink:href="#use4030"/><use id="use4034" width="744.094" height="1052.362" x="0" y="0" transform="matrix(0,1,-1,0,747.6067,13.747711)" xlink:href="#use4032"/></g><g id="layer3"><path style="color:#000;fill:#00f;fill-opacity:1;fill-rule:evenodd;stroke:none;stroke-width:16;marker:none;visibility:visible;display:inline;overflow:visible;enable-background:accumulate" id="path3899" d="m 248.57142,102.36218 a 32.857143,32.857143 0 1 1 -65.71428,0 32.857143,32.857143 0 1 1 65.71428,0 z" transform="translate(147.94064,281.42857)"/><rect style="color:#000;fill:#00f;fill-opacity:1;fill-rule:evenodd;stroke:none;stroke-width:16;marker:none;visibility:visible;display:inline;overflow:visible;enable-background:accumulate" id="rect3923" width="128.28" height="25.714" x="371.429" y="370.934"/><use id="use4028" width="744.094" height="1052.362" x="0" y="0" transform="matrix(0.51437779,0.51437779,-0.98816978,0.98816978,465.72833,-269.80948)" xlink:href="#rect3923" style="fill:#00f;fill-opacity:1"/></g></svg>