<svg xmlns="http://www.w3.org/2000/svg" xmlns:svg="http://www.w3.org/2000/svg" xmlns:xlink="http://www.w3.org/1999/xlink" id="svg2" width="744.094" height="1052.362" version="1.1"><defs id="defs4"><linearGradient id="linearGradient3882"><stop style="stop-color:#4b4b4b;stop-opacity:1" id="stop3884" offset="0"/><stop style="stop-color:#646464;stop-opacity:0" id="stop3886" offset="1"/></linearGradient><linearGradient id="linearGradient3870"><stop style="stop-color:#000;stop-opacity:1" id="stop3872" offset="0"/><stop style="stop-color:#000;stop-opacity:.71764708" id="stop3874" offset="1"/></linearGradient><linearGradient id="linearGradient3798"><stop style="stop-color:#969696;stop-opacity:1" id="stop3800" offset="0"/><stop id="stop3806" offset=".243" style="stop-color:#e2e2e2;stop-opacity:1"/><stop style="stop-color:#fff;stop-opacity:1" id="stop3802" offset="1"/></linearGradient><linearGradient id="linearGradient3755"><stop style="stop-color:#b2b2b2;stop-opacity:1" id="stop3757" offset="0"/><stop id="stop3890" offset=".212" style="stop-color:#d8d8d8;stop-opacity:1"/><stop style="stop-color:#fff;stop-opacity:1" id="stop3759" offset="1"/></linearGradient><linearGradient id="linearGradient3761" x1="375.364" x2="368.571" y1="214.824" y2="815.136" gradientTransform="matrix(0.90839695,0,0,0.91666667,34.797161,23.696858)" gradientUnits="userSpaceOnUse" xlink:href="#linearGradient3755"/><linearGradient id="linearGradient3804" x1="501.757" x2="450.407" y1="379.37" y2="430.719" gradientUnits="userSpaceOnUse" xlink:href="#linearGradient3798"/><linearGradient id="linearGradient3876" x1="414.788" x2="414.788" y1="809.101" y2="316.063" gradientUnits="userSpaceOnUse" xlink:href="#linearGradient3870"/><linearGradient id="linearGradient3888" x1="475.378" x2="412.508" y1="478.25" y2="290.138" gradientUnits="userSpaceOnUse" xlink:href="#linearGradient3882"/><filter id="filter3777"><feGaussianBlur id="feGaussianBlur3779" stdDeviation="5.845"/></filter><filter id="filter3781"><feGaussianBlur id="feGaussianBlur3783" stdDeviation="1.849"/></filter></defs><metadata id="metadata7"/><g id="layer2"><path style="color:#000;fill:url(#linearGradient3876);fill-opacity:1;fill-rule:evenodd;stroke:none;stroke-width:4;marker:none;visibility:visible;display:inline;overflow:visible;filter:url(#filter3777);enable-background:accumulate" id="path3858" d="m 211.28125,333.5 0,448.6307 340,0 0,-330.6932 L 433.3125,333.5 z"/></g><g id="layer1" style="display:inline"><path style="color:#000;fill:url(#linearGradient3761);fill-opacity:1;fill-rule:evenodd;stroke:none;stroke-width:4;marker:none;visibility:visible;display:inline;overflow:visible;enable-background:accumulate" id="rect2985" d="m 211.28572,328.36218 216.90928,0 123.091,123.09 -2.8e-4,316.91 -340,0 z"/><path id="path3808" d="m 434.6273,329.86218 c 0,0 -0.31502,0.26065 3.31424,2.27763 22.47037,12.48806 39.85628,34.39106 57.76475,52.83436 17.08275,17.59292 32.98225,35.23662 47.08224,55.29955 2.56102,3.64409 10.11008,10.19524 10.11008,10.19524 l -116.94535,1.39134 z" style="fill:url(#linearGradient3888);fill-opacity:1;stroke:none;filter:url(#filter3781)"/><path style="fill:url(#linearGradient3804);fill-opacity:1;stroke:none" id="path3796" d="m 428.195,328.36218 c 0,0 7.79555,3.22585 11.42481,5.24283 22.47037,12.48806 40.67801,31.92586 58.58648,50.36916 17.08275,17.59292 32.98225,35.23662 47.08224,55.29955 2.56102,3.64409 5.99747,12.17846 5.99747,12.17846 0,0 1.5494,-21.34224 -101.11805,-19.57974 C 446.25212,324.61889 433.33242,334.93802 428.195,328.36218 z"/></g></svg>