<svg xmlns="http://www.w3.org/2000/svg" xmlns:svg="http://www.w3.org/2000/svg" xmlns:xlink="http://www.w3.org/1999/xlink" id="svg3704" width="26" height="26" version="1.1"><defs id="defs3706"><linearGradient id="linearGradient3671"><stop id="stop3673" offset="0" style="stop-color:#aaa;stop-opacity:1"/><stop id="stop3675" offset="1" style="stop-color:#dcdcdc;stop-opacity:1"/></linearGradient><linearGradient id="linearGradient3632"><stop id="stop3634" offset="0" style="stop-color:#fff;stop-opacity:1"/><stop id="stop3636" offset="1" style="stop-color:#aaa;stop-opacity:1"/></linearGradient><linearGradient id="linearGradient2284"><stop id="stop2321" offset="0" style="stop-color:#fff;stop-opacity:1"/><stop style="stop-color:#7b7b7b;stop-opacity:1" id="stop2288" offset="1"/></linearGradient><marker id="TriangleInL" orient="auto" refX="0" refY="0" style="overflow:visible"><path id="path2148" d="M 5.77,0.0 L -2.88,5.0 L -2.88,-5.0 L 5.77,0.0 z" transform="scale(-0.8)" style="fill-rule:evenodd;stroke:#000;stroke-width:1pt;marker-start:none"/></marker><marker id="TriangleOutL" orient="auto" refX="0" refY="0" style="overflow:visible"><path id="path2139" d="M 5.77,0.0 L -2.88,5.0 L -2.88,-5.0 L 5.77,0.0 z" transform="scale(0.8)" style="fill-rule:evenodd;stroke:#000;stroke-width:1pt;marker-start:none"/></marker><linearGradient id="linearGradient4976"><stop style="stop-color:#006dff;stop-opacity:1" id="stop4978" offset="0"/><stop style="stop-color:#fff;stop-opacity:1" id="stop4980" offset="1"/></linearGradient><linearGradient id="linearGradient4770" x1="309.711" x2="297.766" y1="100.048" y2="243.735" gradientTransform="matrix(6.201526e-2,0.000000,0.000000,6.863490e-2,-4.053225,2.014644)" gradientUnits="userSpaceOnUse" xlink:href="#linearGradient4976"/><linearGradient id="linearGradient2290" x1="1.5" x2="23.5" y1="12.891" y2="12.891" gradientTransform="matrix(0.970644,0.000000,0.000000,0.970644,0.926385,0.857973)" gradientUnits="userSpaceOnUse" xlink:href="#linearGradient2284"/><linearGradient id="linearGradient4461" x1="1.5" x2="23.5" y1="12.891" y2="12.891" gradientTransform="translate(-2.529491,-0.908757)" gradientUnits="userSpaceOnUse" xlink:href="#linearGradient2284"/><linearGradient id="linearGradient4482" x1="1.5" x2="23.5" y1="12.891" y2="12.891" gradientTransform="matrix(0.970644,0.000000,0.000000,0.970644,0.926385,0.857973)" gradientUnits="userSpaceOnUse" xlink:href="#linearGradient2284"/><linearGradient id="linearGradient4486" x1="1.5" x2="23.5" y1="12.891" y2="12.891" gradientTransform="matrix(0.970644,0.000000,0.000000,0.970644,0.926385,0.857973)" gradientUnits="userSpaceOnUse" xlink:href="#linearGradient2284"/><linearGradient id="linearGradient4502" x1="1.5" x2="23.5" y1="12.891" y2="12.891" gradientTransform="matrix(0.970644,0.000000,0.000000,0.970644,0.926385,0.857973)" gradientUnits="userSpaceOnUse" xlink:href="#linearGradient2284"/><linearGradient id="linearGradient4504" x1="1.5" x2="23.5" y1="12.891" y2="12.891" gradientTransform="matrix(0.970644,0.000000,0.000000,0.970644,-0.636115,-0.217999)" gradientUnits="userSpaceOnUse" xlink:href="#linearGradient2284"/><linearGradient id="linearGradient4509" x1="1.5" x2="23.5" y1="12.891" y2="12.891" gradientTransform="matrix(0.970644,0.000000,0.000000,0.970644,1.100413,0.201723)" gradientUnits="userSpaceOnUse" xlink:href="#linearGradient2284"/><linearGradient id="linearGradient3630" x1="9.512" x2="12.425" y1="18.248" y2="19.644" gradientTransform="matrix(1.1134964,0,0,1,0.32076084,0.46490239)" gradientUnits="userSpaceOnUse" xlink:href="#linearGradient3632"/><linearGradient id="linearGradient3669" x1="11.233" x2="4.555" y1="15.872" y2="8.459" gradientUnits="userSpaceOnUse" xlink:href="#linearGradient3671"/></defs><metadata id="metadata3709"/><g id="layer1"><path id="path3620" d="m 15.423865,22.300068 c -4.796953,0 -8.6299842,-4.089585 -9.0231595,-9.214626 l 3.199702,0 c 0.3763499,3.202642 2.7869195,5.724238 5.8234575,5.724238 0,0 0,3.490388 0,3.490388 z" style="color:#000;fill:url(#linearGradient3630);fill-opacity:1;fill-rule:evenodd;stroke:none;stroke-width:.59600001999999996;marker:none;visibility:visible;display:inline;overflow:visible"/><path style="color:#000;fill:#aaa;fill-opacity:1;fill-rule:evenodd;stroke:none;stroke-width:.59600002;marker:none;visibility:visible;display:inline;overflow:visible" id="path4477" d="m 15.420582,2.3125 c -4.796953,0 -8.6380742,4.0624592 -9.0312495,9.1875 l 3.21875,0 C 9.9844324,8.2973587 12.384044,5.78125 15.420582,5.78125 c 3.298914,1e-7 6,2.9326364 6,6.53125 0,3.598616 -2.701086,6.53125 -6,6.53125 -0.02168,0 -0.04088,2.53e-4 -0.0625,0 l 0,3.46875 c 0.02163,1.63e-4 0.04083,0 0.0625,0 5.058554,0 9.156251,-4.481885 9.15625,-10 0,-5.5181133 -4.097696,-10.0000001 -9.15625,-10 z"/><path id="path3622" d="m 0.27642148,10.314838 7.74718792,8.856932 7.5730936,-8.856932 -15.32028152,0 z" style="color:#000;fill:url(#linearGradient3669);fill-opacity:1;fill-rule:evenodd;stroke:#fff;stroke-width:.5;stroke-miterlimit:4;stroke-opacity:1;stroke-dasharray:none;marker:none;visibility:visible;display:inline;overflow:visible"/></g></svg>